#!OML:ASF I:\golf\golf\golf 2\Subject 1\2002-09-07\Subject1.ASF
:FULLY-SPECIFIED
:DEGREES
422
root -4.79459 18.1509 -3.47992 -165.24 -1.76655 -173.828
lowerback -10.9579 13.8704 11.5263
upperback -13.6103 15.3714 0.654809
thorax -5.92714 5.71319 -4.00137
lowerneck -13.3607 -15.5932 -4.07612
upperneck 12.7876 -20.6759 1.25574
head 6.57887 -10.1518 -1.03008
rclavicle -3.3197e-014 -3.18055e-014
rhumerus 96.0026 24.348 -58.3522
rradius 59.0787
rwrist -6.95215
rhand -46.317 30.3209
rfingers 7.12502
rthumb -19.0506 1.23388
lclavicle -3.3197e-014 -3.18055e-014
lhumerus 66.3032 14.0609 42.9512
lradius 56.2536
lwrist 26.4367
lhand -17.9224 9.30852
lfingers 7.12502
lthumb -171.655 -140.876
rfemur 13.8156 -6.85466 24.411
rtibia 12.1464
rfoot 32.746 -35.9502
rtoes 31.5306
lfemur -27.9321 -15.7112 -10.8404
ltibia 24.9301
lfoot 24.0831 -44.817
ltoes 48.0773
423
root -4.78706 18.1528 -3.46492 -165.275 -1.59999 -173.866
lowerback -10.8379 13.7458 11.4147
upperback -13.4388 15.2641 0.768577
thorax -5.86796 5.69951 -3.86051
lowerneck -13.623 -15.4818 -4.07248
upperneck 12.8628 -20.4798 1.10678
head 6.62473 -10.059 -1.07647
rclavicle -6.16232e-015 -4.21423e-014
rhumerus 95.6688 24.5196 -58.377
rradius 58.4419
rwrist -7.1597
rhand -46.3416 30.5297
rfingers 7.12502
rthumb -19.0743 1.44499
lclavicle -6.16232e-015 -4.21423e-014
lhumerus 66.2618 13.4702 43.2601
lradius 55.6977
lwrist 26.4636
lhand -17.9298 9.27106
lfingers 7.12502
lthumb -171.662 -140.914
rfemur 13.5884 -6.93147 24.3036
rtibia 12.6153
rfoot 32.6803 -35.5979
rtoes 30.9042
lfemur -27.8393 -15.5708 -10.8943
ltibia 24.7993
lfoot 24.1769 -44.7265
ltoes 48.0328
424
root -4.78616 18.1554 -3.4465 -165.259 -1.54598 -173.855
lowerback -10.6349 13.6557 11.5318
upperback -13.3674 15.1904 0.800311
thorax -5.88759 5.66483 -3.92911
lowerneck -13.7304 -15.3847 -4.11264
upperneck 12.8664 -20.31 1.01278
head 6.6336 -9.9816 -1.08848
rclavicle 7.07673e-014 2.62396e-014
rhumerus 95.1944 24.5568 -58.356
rradius 57.9285
rwrist -7.44812
rhand -46.6852 30.4093
rfingers 7.12502
rthumb -19.4047 1.35748
lclavicle 7.07673e-014 2.62396e-014
lhumerus 66.2195 12.8345 43.4685
lradius 55.1031
lwrist 26.5683
lhand -17.837 9.28564
lfingers 7.12502
lthumb -171.572 -140.903
rfemur 13.3038 -7.26224 24.1853
rtibia 13.0814
rfoot 33.1491 -34.5581
rtoes 29.4857
lfemur -27.8375 -15.6088 -10.8459
ltibia 24.6626
lfoot 24.4344 -44.4032
ltoes 48.3168
425
root -4.79144 18.1605 -3.42533 -165.243 -1.53186 -173.861
lowerback -10.428 13.5515 11.7323
upperback -13.2695 15.0977 0.817255
thorax -5.86008 5.62004 -4.05257
lowerneck -13.8311 -15.2538 -4.07936
upperneck 12.7705 -20.1046 0.935223
head 6.60293 -9.884 -1.09433
rclavicle 1.55052e-014 -1.66979e-014
rhumerus 94.746 24.5947 -58.3572
rradius 57.4433
rwrist -7.65078
rhand -46.5861 30.4279
rfingers 7.12502
rthumb -19.3093 1.3666
lclavicle 1.55052e-014 -1.66979e-014
lhumerus 66.1628 12.3083 43.7097
lradius 54.5631
lwrist 26.6466
lhand -17.2617 9.41865
lfingers 7.12502
lthumb -171.017 -140.793
rfemur 13.033 -7.6185 24.0187
rtibia 13.5209
rfoot 33.4005 -33.6947
rtoes 28.6541
lfemur -27.8384 -15.7095 -10.8413
ltibia 24.5333
lfoot 24.1588 -44.377
ltoes 48.1309
426
root -4.79004 18.1629 -3.40744 -165.263 -1.38479 -173.944
lowerback -10.3196 13.4198 11.6856
upperback -13.0415 14.982 0.907072
thorax -5.71143 5.60943 -3.95896
lowerneck -14.0774 -15.1045 -3.98962
upperneck 12.554 -19.8612 0.843975
head 6.54909 -9.76361 -1.1115
rclavicle -1.54456e-013 -1.13705e-013
rhumerus 94.482 24.6658 -58.2775
rradius 56.954
rwrist -7.77613
rhand -46.5947 30.2725
rfingers 7.12502
rthumb -19.3176 1.21199
lclavicle -1.54456e-013 -1.13705e-013
lhumerus 66.0989 11.8859 44.0709
lradius 54.1638
lwrist 26.7082
lhand -16.8373 9.58956
lfingers 7.12502
lthumb -170.608 -140.64
rfemur 12.8242 -7.57312 23.8737
rtibia 13.9086
rfoot 33.0591 -33.7815
rtoes 29.0984
lfemur -27.7748 -15.6517 -10.9669
ltibia 24.4271
lfoot 23.6062 -44.6146
ltoes 47.6328
427
root -4.78439 18.1649 -3.39284 -165.233 -1.2619 -173.89
lowerback -10.2861 13.3206 11.7037
upperback -12.8458 14.8786 1.01434
thorax -5.54856 5.59266 -3.8633
lowerneck -14.2716 -14.9722 -3.83112
upperneck 12.2966 -19.6425 0.667047
head 6.45856 -9.66148 -1.15764
rclavicle -1.04362e-013 -7.87187e-014
rhumerus 94.1846 24.7388 -58.2236
rradius 56.4813
rwrist -7.92751
rhand -47.0142 29.4111
rfingers 7.12502
rthumb -19.7209 0.39152
lclavicle -1.04362e-013 -7.87187e-014
lhumerus 66.0819 11.3752 44.3428
lradius 53.6888
lwrist 26.8265
lhand -17.043 9.78049
lfingers 7.12502
lthumb -170.806 -140.44
rfemur 12.5789 -7.40828 23.9523
rtibia 14.2545
rfoot 32.5403 -34.2028
rtoes 29.7142
lfemur -27.7831 -15.5113 -10.9089
ltibia 24.3342
lfoot 23.5242 -44.6397
ltoes 47.5134
